# xmcd
#
# Track frame offsets: 
#        150
#        12150
#        24450
#        36225
#        50775
#        64350
#        76425
#        98250
#        124500
#        137325
#        148200
#        159450
#
# Disc length: 2372 seconds
#
# Revision: 0
# Processed by: cddbd v1.5.2PL0 Copyright (c) Steve Scherf et al.
# Submitted via: ExactAudioCopy v1.3
#
DISCID=9a09420c
DTITLE=Beatriz Zaragoza - Queens Of Blues
DYEAR=2019
DGENRE=Blues
TTITLE0=Alley Boogie
TTITLE1=I Ain?t In The Mood
TTITLE2=How Come
TTITLE3=Hole In The Wall
TTITLE4=Everytimes I Think Of You
TTITLE5=Stop Aa Hopping On Me
TTITLE6=Blues Ain't Nothing
TTITLE7=Lawdy, Lawdy Blues
TTITLE8=Don't You Where No Black
TTITLE9=Jump And Shout
TTITLE10=Good Man
TTITLE11=Women Be Wise
EXTD=
EXTT0=
EXTT1=
EXTT2=
EXTT3=
EXTT4=
EXTT5=
EXTT6=
EXTT7=
EXTT8=
EXTT9=
EXTT10=
EXTT11=
PLAYORDER=
